 ######## ######## ######## ##          ######## ########  ######## ######## 
 ##       ##       ##       ##          ##       ##     ## ##       ##       
 ##       ##       ##       ##          ##       ##     ## ##       ##       
 ######   ######   ######   ##          ######   ########  ######   ######   
 ##       ##       ##       ##          ##       ##   ##   ##       ##       
 ##       ##       ##       ##          ##       ##    ##  ##       ##       
 ##       ######## ######## ########    ##       ##     ## ######## ######## 


 Genre:Family
 Language:English
 IMDb:  http://www.imdb.com/title/tt1691453/
 Source:720p.BluRay.x264-7SinS Thanks!

 Format : AVI
 Format/Info : Audio Video Interleave
 File size : 1.18 GiB
 Duration : 1h 35mn
 Overall bit rate : 1 775 Kbps

 Video
 ID : 0
 Format : MPEG-4 Visual
 Format profile : Advanced Simple@L5
 Format settings, BVOP : Yes
 Format settings, QPel : No
 Format settings, GMC : No warppoints
 Format settings, Matrix : Default (H.263)
 Codec ID : XVID
 Codec ID/Hint : XviD
 Duration : 1h 35mn
 Bit rate : 1 317 Kbps
 Width : 640 pixels
 Height : 360 pixels
 Display aspect ratio : 16:9
 Frame rate : 23.976 fps
 Color space : YUV
 Chroma subsampling : 4:2:0
 Bit depth : 8 bits
 Scan type : Progressive
 Bits/(Pixel*Frame) : 0.238
 Stream size : 897 MiB (74%)
 Writing library : XviD 1.2.1 (UTC 2008-12-04)

 Audio
 ID : 1
 Format : AC-3
 Format/Info : Audio Coding 3
 Mode extension : CM (complete main)
 Codec ID : 2000
 Duration : 1h 35mn
 Bit rate mode : Constant
 Bit rate : 448 Kbps
 Channel(s) : 6 channels
 Channel positions : Front: L C R, Side: L R, LFE
 Sampling rate : 48.0 KHz
 Bit depth : 16 bits
 Stream size : 305 MiB (25%)
 Alignment : Aligned on interleaves
 Interleave, duration : 42 ms (1.00 video frame)
 Interleave, preload duration : 512 ms


 Plot:
 Dan Barnes (Steve Austin) is a former pro boxer who retired after growing weary of his violent existence...







==================================  
http://thepiratebay.org/user/hiest
==================================







Screen Shots:
 
http://www.pix2links.com/images/43871542429170957970.png
 
http://www.pix2links.com/images/22681073946864727539.png
 
http://www.pix2links.com/images/46762545045171269335.png
 
http://www.pix2links.com/images/36021371030030588960.png


 ######## ######## ######## ##          ######## ########  ######## ######## 
 ##       ##       ##       ##          ##       ##     ## ##       ##       
 ##       ##       ##       ##          ##       ##     ## ##       ##       
 ######   ######   ######   ##          ######   ########  ######   ######   
 ##       ##       ##       ##          ##       ##   ##   ##       ##       
 ##       ##       ##       ##          ##       ##    ##  ##       ##       
 ##       ######## ######## ########    ##       ##     ## ######## ######## 